<svg id="svg" xmlns="http://www.w3.org/2000/svg" xmlns:xlink="http://www.w3.org/1999/xlink" width="500" height="212.07071438921895" viewBox="0, 0, 500,212.07071438921895"><g id="svgg"><path id="path0" d="M46.913 0.142 C 44.752 0.599,43.813 1.184,40.284 4.268 C 11.694 29.256,-3.138 67.409,0.512 106.579 C 5.813 163.478,48.921 208.028,102.340 211.814 C 143.997 214.766,183.674 192.112,204.488 153.492 C 206.679 149.426,206.246 145.247,203.324 142.252 C 202.506 141.414,54.532 2.060,54.167 1.785 C 52.190 0.291,49.302 -0.364,46.913 0.142 M449.905 0.080 C 448.493 0.286,446.926 0.951,445.769 1.836 C 445.392 2.124,297.568 141.349,296.641 142.289 C 294.198 144.766,293.427 148.748,294.760 152.007 C 295.445 153.682,298.747 159.291,301.223 162.984 C 339.096 219.479,413.739 228.704,462.723 182.944 C 482.922 164.074,496.120 137.322,499.233 108.933 C 503.720 68.030,488.455 28.621,458.194 2.982 C 455.168 0.418,452.939 -0.362,449.905 0.080 M116.620 85.492 C 154.035 120.738,184.809 149.727,185.006 149.914 L 185.365 150.253 185.083 150.713 C 179.532 159.776,170.819 169.324,162.006 176.003 C 147.980 186.631,132.678 192.422,115.092 193.755 C 113.414 193.883,105.748 193.883,104.115 193.755 C 90.084 192.662,77.973 188.942,66.367 182.162 C 33.394 162.901,14.622 124.292,18.661 84.046 C 20.864 62.097,29.840 41.709,44.371 25.651 C 45.527 24.374,48.476 21.362,48.544 21.390 C 48.571 21.401,79.205 50.247,116.620 85.492 M452.915 22.809 C 490.142 60.885,491.707 123.482,456.430 163.382 C 420.031 204.550,359.214 204.020,323.395 162.223 C 319.967 158.222,314.454 150.603,314.709 150.219 C 314.796 150.087,451.408 21.383,451.466 21.378 C 451.491 21.375,452.143 22.020,452.915 22.809 M107.086 104.382 C 84.565 105.225,69.157 129.438,76.595 152.297 C 83.898 174.741,109.064 183.576,127.264 170.086 C 145.628 156.473,146.660 127.634,129.329 112.426 C 123.436 107.255,115.157 104.116,108.028 104.348 C 107.809 104.356,107.385 104.371,107.086 104.382 M388.748 104.513 C 367.927 106.715,354.059 128.045,359.376 149.688 C 363.615 166.941,379.159 178.335,395.595 176.237 C 415.327 173.719,428.689 153.568,424.466 132.698 C 421.630 118.682,411.086 107.645,398.022 105.018 C 395.225 104.456,391.307 104.243,388.748 104.513 " stroke="none" fill="#000000" fill-rule="evenodd"></path></g></svg>